<?xml version="1.0" encoding="UTF-8"?>
<svg xmlns="http://www.w3.org/2000/svg" xmlns:xlink="http://www.w3.org/1999/xlink" width="48px" height="46px" viewBox="0 0 48 46" version="1.1">
<g id="surface1">
<path style=" stroke:none;fill-rule:nonzero;fill:rgb(99.607843%,99.607843%,99.607843%);fill-opacity:1;" d="M 14.261719 6.292969 C 14.46875 6.289062 14.671875 6.289062 14.875 6.289062 C 15.421875 6.289062 15.972656 6.289062 16.523438 6.289062 C 17.097656 6.289062 17.675781 6.289062 18.253906 6.289062 C 19.226562 6.289062 20.195312 6.289062 21.167969 6.289062 C 22.285156 6.292969 23.402344 6.292969 24.515625 6.289062 C 25.480469 6.289062 26.445312 6.289062 27.410156 6.289062 C 27.980469 6.289062 28.554688 6.289062 29.128906 6.289062 C 29.667969 6.289062 30.207031 6.289062 30.75 6.289062 C 30.945312 6.292969 31.140625 6.289062 31.339844 6.289062 C 32.332031 6.289062 33.320312 6.3125 34.308594 6.398438 C 34.4375 6.410156 34.4375 6.410156 34.566406 6.417969 C 35.261719 6.484375 35.839844 6.660156 36.46875 6.976562 C 36.542969 7.011719 36.617188 7.046875 36.695312 7.082031 C 38.347656 7.910156 39.1875 9.464844 39.859375 11.105469 C 40.054688 11.851562 40.046875 12.644531 40.042969 13.414062 C 40.042969 13.503906 40.042969 13.597656 40.042969 13.691406 C 40.046875 13.996094 40.046875 14.300781 40.042969 14.605469 C 40.046875 14.824219 40.046875 15.042969 40.046875 15.265625 C 40.046875 15.859375 40.046875 16.453125 40.046875 17.046875 C 40.046875 17.417969 40.046875 17.789062 40.046875 18.160156 C 40.046875 19.390625 40.046875 20.621094 40.046875 21.855469 C 40.046875 21.953125 40.046875 21.953125 40.046875 22.054688 C 40.046875 22.121094 40.046875 22.1875 40.046875 22.253906 C 40.046875 23.328125 40.050781 24.402344 40.050781 25.476562 C 40.050781 26.582031 40.054688 27.6875 40.050781 28.796875 C 40.050781 29.414062 40.054688 30.035156 40.054688 30.65625 C 40.054688 31.238281 40.054688 31.820312 40.054688 32.402344 C 40.054688 32.617188 40.054688 32.828125 40.054688 33.042969 C 40.054688 33.335938 40.054688 33.625 40.054688 33.917969 C 40.054688 34.003906 40.054688 34.085938 40.054688 34.171875 C 40.050781 34.910156 39.960938 35.640625 39.644531 36.316406 C 39.605469 36.398438 39.566406 36.480469 39.527344 36.566406 C 39.484375 36.648438 39.445312 36.730469 39.402344 36.816406 C 39.367188 36.898438 39.328125 36.980469 39.289062 37.066406 C 38.601562 38.503906 37.542969 39.429688 36.09375 40.0625 C 36.011719 40.097656 35.933594 40.136719 35.847656 40.171875 C 34.457031 40.75 32.839844 40.65625 31.359375 40.652344 C 31.152344 40.652344 30.941406 40.652344 30.734375 40.652344 C 30.175781 40.652344 29.617188 40.652344 29.058594 40.652344 C 28.472656 40.652344 27.882812 40.652344 27.296875 40.652344 C 26.246094 40.652344 25.199219 40.652344 24.148438 40.652344 C 23.203125 40.652344 22.253906 40.652344 21.304688 40.652344 C 20.199219 40.652344 19.09375 40.652344 17.988281 40.652344 C 17.40625 40.652344 16.820312 40.652344 16.238281 40.652344 C 15.691406 40.652344 15.140625 40.652344 14.59375 40.652344 C 14.390625 40.652344 14.191406 40.652344 13.992188 40.652344 C 11.96875 40.65625 10.113281 40.582031 8.4375 39.308594 C 8.367188 39.261719 8.300781 39.214844 8.230469 39.164062 C 6.917969 38.230469 6.265625 36.804688 6 35.253906 C 5.917969 34.660156 5.890625 34.078125 5.894531 33.480469 C 5.894531 33.394531 5.890625 33.304688 5.890625 33.210938 C 5.890625 32.914062 5.890625 32.617188 5.890625 32.320312 C 5.890625 32.109375 5.890625 31.894531 5.890625 31.679688 C 5.886719 31.101562 5.886719 30.523438 5.886719 29.945312 C 5.886719 29.582031 5.886719 29.21875 5.886719 28.855469 C 5.886719 27.851562 5.882812 26.84375 5.882812 25.839844 C 5.882812 25.773438 5.882812 25.710938 5.882812 25.644531 C 5.882812 25.578125 5.882812 25.515625 5.882812 25.449219 C 5.882812 25.316406 5.882812 25.1875 5.882812 25.054688 C 5.882812 24.992188 5.882812 24.925781 5.882812 24.859375 C 5.882812 23.8125 5.882812 22.765625 5.878906 21.71875 C 5.878906 20.640625 5.875 19.5625 5.875 18.484375 C 5.875 17.882812 5.875 17.277344 5.875 16.671875 C 5.871094 16.105469 5.871094 15.535156 5.871094 14.964844 C 5.871094 14.757812 5.871094 14.550781 5.871094 14.34375 C 5.863281 12.011719 6.058594 10.121094 7.59375 8.296875 C 7.644531 8.230469 7.695312 8.167969 7.746094 8.101562 C 9.367188 6.246094 12.027344 6.285156 14.261719 6.292969 Z M 14.261719 6.292969 "/>
<path style=" stroke:none;fill-rule:nonzero;fill:rgb(1.176471%,1.568628%,1.568628%);fill-opacity:1;" d="M 25.5 16.777344 C 28.191406 16.777344 30.882812 16.777344 33.65625 16.777344 C 33.65625 17.308594 33.65625 17.835938 33.65625 18.382812 C 34.214844 18.382812 34.769531 18.382812 35.34375 18.382812 C 35.34375 21.117188 35.34375 23.855469 35.34375 26.675781 C 34.785156 26.675781 34.230469 26.675781 33.65625 26.675781 C 33.65625 27.234375 33.65625 27.796875 33.65625 28.371094 C 30.964844 28.371094 28.273438 28.371094 25.5 28.371094 C 25.5 27.8125 25.5 27.253906 25.5 26.675781 C 24.941406 26.675781 24.386719 26.675781 23.8125 26.675781 C 23.8125 23.9375 23.8125 21.203125 23.8125 18.382812 C 24.371094 18.382812 24.925781 18.382812 25.5 18.382812 C 25.5 17.851562 25.5 17.324219 25.5 16.777344 Z M 25.5 16.777344 "/>
<path style=" stroke:none;fill-rule:nonzero;fill:rgb(1.176471%,1.568628%,1.568628%);fill-opacity:1;" d="M 10.6875 16.777344 C 13.410156 16.777344 16.132812 16.777344 18.9375 16.777344 C 18.9375 17.339844 18.9375 17.898438 18.9375 18.476562 C 19.464844 18.476562 19.988281 18.476562 20.53125 18.476562 C 20.53125 19.003906 20.53125 19.53125 20.53125 20.078125 C 21.089844 20.078125 21.644531 20.078125 22.21875 20.078125 C 22.21875 21.726562 22.21875 23.375 22.21875 25.074219 C 21.660156 25.074219 21.105469 25.074219 20.53125 25.074219 C 20.53125 25.601562 20.53125 26.132812 20.53125 26.675781 C 20.003906 26.675781 19.480469 26.675781 18.9375 26.675781 C 18.9375 27.234375 18.9375 27.796875 18.9375 28.371094 C 16.214844 28.371094 13.492188 28.371094 10.6875 28.371094 C 10.6875 24.546875 10.6875 20.722656 10.6875 16.777344 Z M 10.6875 16.777344 "/>
<path style=" stroke:none;fill-rule:nonzero;fill:rgb(97.254902%,97.254902%,97.254902%);fill-opacity:1;" d="M 27.09375 18.382812 C 27.894531 18.378906 28.699219 18.378906 29.523438 18.375 C 29.777344 18.375 30.03125 18.375 30.292969 18.371094 C 30.492188 18.371094 30.695312 18.371094 30.894531 18.371094 C 30.996094 18.371094 31.101562 18.371094 31.210938 18.371094 C 31.359375 18.371094 31.359375 18.371094 31.511719 18.371094 C 31.597656 18.371094 31.683594 18.371094 31.773438 18.371094 C 31.96875 18.382812 31.96875 18.382812 32.0625 18.476562 C 32.070312 18.734375 32.074219 18.988281 32.074219 19.246094 C 32.074219 19.328125 32.074219 19.410156 32.074219 19.492188 C 32.074219 19.761719 32.074219 20.03125 32.070312 20.300781 C 32.070312 20.484375 32.070312 20.671875 32.070312 20.855469 C 32.070312 21.347656 32.070312 21.835938 32.070312 22.328125 C 32.066406 22.914062 32.066406 23.503906 32.066406 24.089844 C 32.066406 24.984375 32.0625 25.875 32.0625 26.769531 C 30.421875 26.769531 28.78125 26.769531 27.09375 26.769531 C 27.09375 24.003906 27.09375 21.234375 27.09375 18.382812 Z M 27.09375 18.382812 "/>
<path style=" stroke:none;fill-rule:nonzero;fill:rgb(98.039216%,98.431373%,98.431373%);fill-opacity:1;" d="M 13.96875 18.382812 C 15.082031 18.382812 16.195312 18.382812 17.34375 18.382812 C 17.34375 18.941406 17.34375 19.5 17.34375 20.078125 C 17.871094 20.078125 18.394531 20.078125 18.9375 20.078125 C 18.9375 21.726562 18.9375 23.375 18.9375 25.074219 C 18.378906 25.074219 17.824219 25.074219 17.25 25.074219 C 17.25 25.601562 17.25 26.132812 17.25 26.675781 C 16.167969 26.675781 15.085938 26.675781 13.96875 26.675781 C 13.96875 23.9375 13.96875 21.203125 13.96875 18.382812 Z M 13.96875 18.382812 "/>
<path style=" stroke:none;fill-rule:nonzero;fill:rgb(17.647059%,20%,21.568628%);fill-opacity:1;" d="M 17.25 25.074219 C 17.3125 25.074219 17.375 25.074219 17.4375 25.074219 C 17.4375 25.199219 17.4375 25.324219 17.4375 25.449219 C 17.5 25.480469 17.5625 25.511719 17.625 25.546875 C 17.5625 25.546875 17.5 25.546875 17.4375 25.546875 C 17.4375 25.917969 17.4375 26.292969 17.4375 26.675781 C 17.375 26.675781 17.3125 26.675781 17.25 26.675781 C 17.25 26.148438 17.25 25.617188 17.25 25.074219 Z M 17.25 25.074219 "/>
</g>
</svg>
